<?xml version="1.0" standalone="no"?><!DOCTYPE svg PUBLIC "-//W3C//DTD SVG 1.1//EN" "http://www.w3.org/Graphics/SVG/1.1/DTD/svg11.dtd"><svg t="1598860593103" class="icon" viewBox="0 0 1024 1024" version="1.1" xmlns="http://www.w3.org/2000/svg" p-id="4692" xmlns:xlink="http://www.w3.org/1999/xlink" width="200" height="200"><defs><style type="text/css"></style></defs><path d="M512 80c-176 0-320 144-320 320 0 96 72 249.6 214.4 456 19.2 28.8 48 46.4 81.6 52.8 8 3.2 16 3.2 24 3.2 25.6 0 51.2-8 72-22.4 12.8-9.6 24-20.8 33.6-33.6C760 649.6 832 496 832 400c0-176-144-320-320-320z m52.8 740.8c-4.8 6.4-9.6 12.8-16 16-14.4 9.6-30.4 12.8-48 9.6-17.6-3.2-32-12.8-41.6-27.2C291.2 576 256 457.6 256 400c0-140.8 115.2-256 256-256s256 115.2 256 256c0 57.6-35.2 176-203.2 420.8z" p-id="4693" fill="#8a8a8a"></path><path d="M512 288c-70.4 0-128 57.6-128 128s57.6 128 128 128 128-57.6 128-128-57.6-128-128-128z m0 192c-35.2 0-64-28.8-64-64s28.8-64 64-64 64 28.8 64 64-28.8 64-64 64z" p-id="4694" fill="#8a8a8a"></path></svg>