<svg xmlns="http://www.w3.org/2000/svg" viewBox="0 0 32 32" width="30" height="30" style="fill: rgba(19, 194, 194, 1);"><path d="M11.003 12.422h1.774s0.533-2.839 3.195-2.839c3.017 0 3.017 2.661 3.017 2.839 0 0.533 0 1.419-1.952 2.837-1.419 1.244-2.128 2.841-1.952 4.615h1.746c-0.177-1.419 0.739-2.662 1.271-3.195 2.306-1.774 2.661-3.017 2.661-4.258 0.177-1.775-1.243-4.614-4.791-4.614-3.904 0-4.969 4.082-4.969 4.614zM16.859 23.070c0 0.588-0.477 1.065-1.065 1.065s-1.065-0.477-1.065-1.065c0-0.588 0.477-1.065 1.065-1.065s1.065 0.477 1.065 1.065zM16 28.8c7.069 0 12.8-5.731 12.8-12.8s-5.731-12.8-12.8-12.8-12.8 5.731-12.8 12.8 5.731 12.8 12.8 12.8zM16 30.667c-8.1 0-14.667-6.566-14.667-14.667s6.566-14.667 14.667-14.667 14.667 6.566 14.667 14.667-6.566 14.667-14.667 14.667z"></path></svg>